<?xml version="1.0" encoding="utf-8"?>
<!-- Generator: Adobe Illustrator 27.0.0, SVG Export Plug-In . SVG Version: 6.00 Build 0)  -->
<svg version="1.1" xmlns="http://www.w3.org/2000/svg" xmlns:xlink="http://www.w3.org/1999/xlink" x="0px" y="0px"
	 viewBox="0 0 2387.45 1605.57" style="enable-background:new 0 0 2387.45 1605.57;" xml:space="preserve">
<style type="text/css">
	.st0{display:none;}
	.st1{display:inline;fill:none;stroke:#000000;stroke-miterlimit:10;}
	.st2{fill:#FFFFFF;}
</style>
<g id="safe-zone" class="st0">
	
		<rect x="302.78" y="302.78" transform="matrix(-1 -1.224647e-16 1.224647e-16 -1 2387.4492 1605.574)" class="st1" width="1781.88" height="1000"/>
	
		<rect y="751.17" transform="matrix(-1 -1.224647e-16 1.224647e-16 -1 2387.4492 1605.574)" class="st1" width="2387.45" height="103.23"/>
	<rect class="st1" width="302.78" height="302.78"/>
	<rect y="1302.79" class="st1" width="302.78" height="302.78"/>
	<rect x="2084.66" y="1302.79" class="st1" width="302.78" height="302.78"/>
	<rect x="2084.66" class="st1" width="302.78" height="302.78"/>
	<rect transform="matrix(-1 -1.224647e-16 1.224647e-16 -1 2387.4492 1605.574)" class="st1" width="2387.45" height="1605.57"/>
</g>
<g id="logotype">
	<g>
		<path class="st2" d="M717.14,597.65c1.83,70.67,53,104.79,101.13,104.79c48.74,0,75.55-21.93,89.56-54.22h57.27
			c-14.62,56.05-67.01,102.96-146.82,102.96c-103.57,0-160.83-74.32-160.83-171.19c0-104.18,69.45-169.97,159.01-169.97
			c100.52,0,159.62,83.46,152.92,187.64H717.14z M717.75,550.13h193.13c-1.83-46.3-35.33-92.6-94.43-92.6
			C767.71,457.53,722.62,484.33,717.75,550.13z"/>
		<path class="st2" d="M1391.17,743.26c0-12.36,0-22.89,0-45.08c-20.1,34.12-53.61,53-112.1,53c-61.53,0-112.71-34.11-112.71-94.43
			c0-64.59,68.49-115.14,167.9-115.14c22.38,0,24.83,0,53.86,0v-7.92c0-57.71-31.2-78.59-72.62-78.59
			c-46.3,0-74.2,24.37-76.63,65.19h-57.27c4.88-70.67,69.94-110.27,133.29-110.27c90.78,0,128.67,52.13,128.67,134.03v75.55v123.67
			H1391.17z M1392.39,585.47c-19.84,0-33.83,0-50.27,0c-86.1,0-114.22,33.41-114.22,70.06c0,31.07,23.76,51.78,63.36,51.78
			c51.78,0,101.13-23.76,101.13-101.13V585.47z"/>
		<path class="st2" d="M1709.76,697.57c-18.89,31.07-48.74,53.61-102.96,53.61c-75.55,0-104.79-49.96-104.79-124.89V416.71h55.44
			v193.13c0,50.57,7.92,93.21,68.84,93.21c53,0,83.47-35.33,83.47-106V416.71h55.44v327.76h-55.44V697.57z"/>
		<path class="st2" d="M1882.09,744.47h-55.44V302.78h55.44V744.47z"/>
		<path class="st2" d="M1957.69,461.18H1912v-44.47h45.69v-82.24h55.44v82.24h71.53v44.47h-71.53v196.17v10.82
			c0,16.57,13.43,30,30,30h41.53v46.3h-38.63c-52.7,0-88.34-27.61-88.34-90.17V461.18z"/>
		<path class="st2" d="M550.13,302.78h55.44v441.69h-55.44v-49.35c-20.1,34.73-54.22,56.05-107.22,56.05
			c-75.55,0-140.12-60.31-140.12-169.36c0-107.23,64.58-171.81,140.12-171.81c53,0,87.12,23.76,107.22,58.49V302.78z M453.26,457.52
			c-56.66,0-93.82,45.7-93.82,124.29c0,78.58,37.16,121.84,93.82,121.84c49.35,0,95.65-35.34,95.65-121.84
			C548.91,495.31,502.61,457.52,453.26,457.52z"/>
		<path class="st2" d="M1088.34,461.18v283.29h-55.44V461.18H987.2v-44.47h45.69v-23.76c0-62.56,35.64-90.17,88.34-90.17h38.63v46.3
			h-37.42h-4.11c-16.57,0-30,13.43-30,30v37.62h71.53v44.47H1088.34z"/>
		<path class="st2" d="M946.09,900.7h37.42v-46.3h-38.63c-52.7,0-88.34,27.61-88.34,90.17v23.76H735.61V930.7
			c0-16.57,13.43-30,30-30h4.11h37.42v-46.3h-38.63c-52.7,0-88.34,27.61-88.34,90.17v23.76h-45.69v44.47h45.69v283.29h55.44V1012.8
			h120.92v283.29h55.44V1012.8h71.53v-44.47h-71.53V930.7c0-16.57,13.43-30,30-30H946.09z"/>
		<path class="st2" d="M617.15,1132.21c0,118.8-81.03,170.58-157.18,170.58s-157.18-51.78-157.18-170.58
			c0-118.81,81.03-170.58,157.18-170.58S617.15,1013.41,617.15,1132.21z M459.97,1254.05c50.57,0,98.08-37.77,98.08-121.84
			c0-87.73-47.52-121.85-98.08-121.85s-98.09,32.29-98.09,121.85C361.88,1219.94,409.4,1254.05,459.97,1254.05z"/>
		<path class="st2" d="M1088.27,854.4v67.02h-55.37V854.4H1088.27z M1088.27,968.32v327.76h-55.37V968.32H1088.27z"/>
		<path class="st2" d="M1443.37,1076.77h-56.05c-7.92-38.99-41.43-66.41-84.68-66.41c-48.74,0-94.43,38.38-94.43,120.63
			c0,82.85,45.69,123.06,94.43,123.06c46.91,0,79.2-31.68,87.12-65.8h57.27c-11.58,61.53-69.45,114.53-146.22,114.53
			c-94.43,0-152.92-71.28-152.92-171.19c0-97.48,61.53-169.97,158.4-169.97C1386.71,961.63,1435.45,1020.72,1443.37,1076.77z"/>
		<path class="st2" d="M1539.01,1149.27c1.82,70.67,52.91,104.79,100.96,104.79c48.66,0,75.42-21.93,89.41-54.22h57.17
			c-14.59,56.05-66.9,102.96-146.58,102.96c-103.4,0-160.57-74.32-160.57-171.19c0-104.18,69.34-169.97,158.74-169.97
			c100.36,0,159.36,83.46,152.66,187.64H1539.01z M1539.61,1101.75h192.81c-1.82-46.3-35.27-92.6-94.27-92.6
			C1589.49,1009.14,1544.48,1035.95,1539.61,1101.75z"/>
	</g>
	<g>
		<g>
			<path class="st2" d="M1814.7,854.4c33.14,0,59.88,24.5,59.88,60.36c0,35.54-26.74,59.88-59.88,59.88
				c-33.3,0-60.04-24.34-60.04-59.88C1754.66,878.9,1781.4,854.4,1814.7,854.4z M1814.7,963.91c27.54,0,48.03-19.69,48.03-49.15
				c0-29.78-20.49-49.63-48.03-49.63c-26.9,0-48.19,19.85-48.19,49.63C1766.51,944.22,1787.8,963.91,1814.7,963.91z M1816.62,920.04
				h-2.88h-9.29v24.34h-13.13V880.5h19.53c18.73,0,30.1,3.36,30.1,19.85c0,7.05-3.36,13.29-11.53,16.97l14.73,27.06h-14.57
				L1816.62,920.04z M1812.94,890.9h-8.49v19.05h9.29c10.09,0,14.09-3.2,14.09-9.45C1827.83,892.82,1821.9,890.9,1812.94,890.9z"/>
		</g>
	</g>
</g>
</svg>
